<svg width="40" height="41" viewBox="0 0 40 41" fill="none" xmlns="http://www.w3.org/2000/svg">
<g clip-path="url(#clip0_1_854)">
<path fill-rule="evenodd" clip-rule="evenodd" d="M8.30814 4.56781C6.02576 4.56781 4.33695 6.56544 4.41254 8.73188C4.48508 10.8132 4.39085 13.5088 3.7122 15.7071C3.03153 17.9119 1.88034 19.3085 0 19.4878V21.5122C1.88034 21.6915 3.03153 23.0881 3.7122 25.2929C4.39085 27.4912 4.48508 30.1868 4.41254 32.2682C4.33695 34.4343 6.02576 36.4322 8.30847 36.4322H31.6949C33.9773 36.4322 35.6658 34.4346 35.5902 32.2682C35.5176 30.1868 35.6119 27.4912 36.2905 25.2929C36.9715 23.0881 38.1197 21.6915 40 21.5122V19.4878C38.1197 19.3085 36.9715 17.9119 36.2905 15.7071C35.6119 13.5092 35.5176 10.8132 35.5902 8.73188C35.6658 6.56578 33.9773 4.56781 31.6949 4.56781H8.3078H8.30814ZM27.1186 24.1824C27.1186 27.1654 24.8936 28.9746 21.201 28.9746H14.9153C14.7354 28.9746 14.563 28.9032 14.4359 28.776C14.3087 28.6489 14.2373 28.4764 14.2373 28.2966V12.7034C14.2373 12.5236 14.3087 12.3512 14.4359 12.224C14.563 12.0969 14.7354 12.0254 14.9153 12.0254H21.1651C24.2441 12.0254 26.2647 13.6932 26.2647 16.2539C26.2647 18.0512 24.9054 19.6604 23.1736 19.942V20.0359C25.5312 20.2946 27.1186 21.9271 27.1186 24.1824ZM20.5156 14.1746H16.9315V19.237H19.9502C22.2837 19.237 23.5705 18.2973 23.5705 16.6176C23.5705 15.0437 22.4641 14.1746 20.5156 14.1746ZM16.9315 21.2458V26.8248H20.6475C23.0769 26.8248 24.3641 25.8498 24.3641 24.0176C24.3641 22.1851 23.041 21.2454 20.4912 21.2454L16.9315 21.2458Z" fill="white"/>
</g>
<defs>
<clipPath id="clip0_1_854">
<rect width="40" height="32" fill="white" transform="translate(0 4.5)"/>
</clipPath>
</defs>
</svg>
